<svg width="95" height="95" viewBox="0 0 95 95" fill="none" xmlns="http://www.w3.org/2000/svg">
<path d="M93.579 58.9868C87.2326 84.4468 61.4375 99.9236 36.0139 93.5768C10.5531 87.2304 -4.92372 61.4364 1.42309 36.0131C7.76954 10.5531 33.5272 -4.92372 58.9879 1.4231C84.4115 7.73243 99.9258 33.5264 93.579 58.9868Z" fill="url(#paint0_linear_179_5)"/>
<path d="M70.1163 41.5811C71.044 35.2725 66.2569 31.8584 59.6515 29.5947L61.8038 21.0225L56.6085 19.7236L54.5304 28.0732C53.1573 27.7393 51.7472 27.4053 50.337 27.1084L52.4151 18.7217L47.2198 17.4229L45.1046 25.958C43.9542 25.6982 42.8409 25.4385 41.7647 25.1787V25.1416L34.5655 23.3604L33.1925 28.9268C33.1925 28.9268 37.0518 29.8174 36.9776 29.8545C39.0929 30.374 39.464 31.7842 39.3897 32.8975L36.9405 42.6572C37.089 42.6943 37.2745 42.7314 37.4972 42.8428C37.3116 42.8057 37.1261 42.7686 36.9405 42.6943L33.5265 56.3506C33.2667 56.9814 32.5987 57.9463 31.1515 57.5752C31.1886 57.6494 27.3663 56.6475 27.3663 56.6475L24.7686 62.6221L31.5597 64.3291C32.8214 64.6631 34.046 64.96 35.2706 65.2939L33.1183 73.9404L38.3136 75.2393L40.4659 66.667C41.8761 67.0381 43.2862 67.4092 44.6222 67.7432L42.5069 76.2783L47.7022 77.5772L49.8546 68.9307C58.7608 70.6006 65.4405 69.9326 68.2237 61.8799C70.4874 55.4229 68.1124 51.6748 63.4366 49.2256C66.8878 48.4463 69.4483 46.1826 70.1163 41.5811ZM58.2042 58.2803C56.6085 64.7373 45.6983 61.249 42.1729 60.3584L45.0304 48.8916C48.5558 49.7822 59.9112 51.5264 58.2042 58.2803ZM59.837 41.4697C58.3526 47.3701 49.2979 44.3643 46.3663 43.6221L48.964 33.2314C51.8956 33.9736 61.3585 35.3467 59.837 41.4697Z" fill="white"/>
<defs>
<linearGradient id="paint0_linear_179_5" x1="4747.43" y1="-2.28" x2="4747.43" y2="9499.04" gradientUnits="userSpaceOnUse">
<stop stop-color="#F9AA4B"/>
<stop offset="1" stop-color="#F7931A"/>
</linearGradient>
</defs>
</svg>
