<svg width="64" height="64" viewBox="0 0 64 64" fill="none" xmlns="http://www.w3.org/2000/svg">
<path d="M32 4C16.5375 4 4 16.5375 4 32C4 47.4625 16.5375 60 32 60C47.4625 60 60 47.4625 60 32C60 16.5375 47.4625 4 32 4ZM35.9688 27.4875C36.2438 27.4875 36.4688 27.7125 36.4688 27.9875V29.6875C36.4688 29.9625 36.2438 30.1875 35.9688 30.1875H27.4688C27.45 30.4625 27.45 30.7562 27.45 31.05V33.3H35.9625C36.2375 33.3 36.4625 33.525 36.4625 33.8V35.5C36.4625 35.775 36.2375 36 35.9625 36H27.8062C28.7625 39.875 31.6375 42.1625 35.9188 42.1625C37.1625 42.1625 38.2375 42.0875 39.1562 41.9062C39.4625 41.8438 39.75 42.0812 39.75 42.3937V45.0687C39.75 45.3062 39.5812 45.5063 39.35 45.5563C38.3562 45.7688 37.2062 45.875 35.8937 45.875C29.0312 45.875 24.4563 42.2 23.3813 36H21.5C21.225 36 21 35.775 21 35.5V33.8C21 33.525 21.225 33.3 21.5 33.3H23.1313V30.9937C23.1313 30.7187 23.1312 30.4438 23.15 30.1938H21.5C21.225 30.1938 21 29.9688 21 29.6938V27.9937C21 27.7187 21.225 27.4937 21.5 27.4937H23.4813C24.7125 21.6062 29.2312 18.125 35.8937 18.125C37.2 18.125 38.3562 18.2437 39.35 18.4625C39.5812 18.5125 39.7438 18.7125 39.7438 18.95V21.625H39.75C39.75 21.9437 39.4625 22.175 39.15 22.1125C38.2313 21.9312 37.1625 21.8375 35.9188 21.8375C31.8313 21.8375 29.0188 23.9312 27.9438 27.4875H35.9688Z" fill="#0064A2"/>
</svg>
