<svg width="50" height="56" viewBox="0 0 50 56" fill="none" xmlns="http://www.w3.org/2000/svg">
<path d="M48.1578 10.5984C47.1297 7.7 44.8438 5.41406 41.9453 4.36406C39.3094 3.5 36.8812 3.5 31.9266 3.5H17.0625C12.1625 3.5 9.7125 3.5 7.07656 4.32031C4.17812 5.37031 1.89219 7.65625 0.842187 10.5547C0 13.2125 0 15.6625 0 20.5844V35.4156C0 40.3594 0 42.7875 0.820312 45.4234C1.87031 48.3219 4.15625 50.6078 7.05469 51.6578C9.7125 52.5 12.1625 52.5 17.0734 52.5H31.9156C36.8375 52.5 39.2875 52.5 41.9344 51.6578C44.8328 50.6078 47.1187 48.3219 48.1687 45.4234C49.0109 42.7656 49.0109 40.3156 49.0109 35.4156V20.5953C49.0109 15.6734 49.0109 13.2234 48.1687 10.5875L48.1578 10.5984ZM35.3391 20.2781L32.5172 22.5859C32.2656 22.7937 31.9156 22.75 31.7188 22.4875C30.275 20.7156 28.0328 19.7094 25.5828 19.7094C22.8484 19.7094 21.1422 20.9016 21.1422 22.575C21.0984 23.975 22.4219 24.7188 26.5125 25.6047C31.675 26.6984 34.0266 28.8531 34.0266 32.4625C34.0266 36.9906 30.3406 40.3266 24.5766 40.6984L24.0188 43.3781C23.975 43.6297 23.7344 43.8266 23.4609 43.8266H19.0203C18.6484 43.8266 18.3859 43.4766 18.4625 43.1266L19.1625 40.1406C16.3187 39.3203 14 37.7344 12.6766 35.7984C12.5125 35.5469 12.5562 35.2187 12.7969 35.0328L15.8812 32.6266C16.1328 32.4187 16.5156 32.4844 16.7016 32.7469C18.3312 35.0328 20.8578 36.3891 23.8875 36.3891C26.6219 36.3891 28.6781 35.0547 28.6781 33.1406C28.6781 31.675 27.65 30.9969 24.1719 30.275C18.2437 28.9953 15.8812 26.7969 15.8812 23.1766C15.8812 18.9766 19.4031 15.8266 24.7297 15.4109L25.3094 12.6328C25.3531 12.3813 25.5938 12.1844 25.8672 12.1844H30.2312C30.5812 12.1844 30.8656 12.5125 30.7891 12.8625L30.1109 15.9688C32.3969 16.6688 34.2672 17.9266 35.4375 19.4906C35.6234 19.7203 35.5797 20.0703 35.3391 20.2562V20.2781Z" fill="#00A79D"/>
</svg>
