<svg width="73" height="73" viewBox="0 0 73 73" fill="none" xmlns="http://www.w3.org/2000/svg">
<path d="M64.0879 67.6467H62.415V52.4383H64.0879C64.6929 52.4383 65.2732 52.198 65.701 51.7702C66.1288 51.3423 66.3692 50.7621 66.3692 50.1571C66.3692 49.552 66.1288 48.9718 65.701 48.544C65.2732 48.1162 64.6929 47.8758 64.0879 47.8758H56.1492C55.5441 47.8758 54.9639 48.1162 54.5361 48.544C54.1083 48.9718 53.8679 49.552 53.8679 50.1571C53.8679 50.7621 54.1083 51.3423 54.5361 51.7702C54.9639 52.198 55.5441 52.4383 56.1492 52.4383H57.7917V67.6467H56.0883C55.4833 67.6467 54.9031 67.887 54.4752 68.3148C54.0474 68.7426 53.8071 69.3229 53.8071 69.9279C53.8071 70.5329 54.0474 71.1132 54.4752 71.541C54.9031 71.9688 55.4833 72.2092 56.0883 72.2092H64.0271C64.6321 72.2092 65.2123 71.9688 65.6402 71.541C66.068 71.1132 66.3083 70.5329 66.3083 69.9279C66.3083 69.3229 66.068 68.7426 65.6402 68.3148C65.2123 67.887 64.6321 67.6467 64.0271 67.6467H64.0879ZM39.785 47.7846H33.7017C33.0966 47.7846 32.5164 48.0249 32.0886 48.4527C31.6608 48.8806 31.4204 49.4608 31.4204 50.0658V69.9583C31.4204 70.5633 31.6608 71.1436 32.0886 71.5714C32.5164 71.9992 33.0966 72.2396 33.7017 72.2396C34.3067 72.2396 34.8869 71.9992 35.3147 71.5714C35.7426 71.1436 35.9829 70.5633 35.9829 69.9583V64.2704H39.6633C41.8495 64.2704 43.9461 63.402 45.492 61.8561C47.0378 60.3103 47.9062 58.2136 47.9062 56.0275C47.9062 53.8413 47.0378 51.7447 45.492 50.1989C43.9461 48.653 41.8495 47.7846 39.6633 47.7846H39.785ZM39.785 59.7079H36.1046V52.3471H39.785C40.7611 52.3471 41.6972 52.7348 42.3874 53.425C43.0777 54.1153 43.4654 55.0514 43.4654 56.0275C43.4654 57.0036 43.0777 57.9397 42.3874 58.6299C41.6972 59.3201 40.7611 59.7079 39.785 59.7079ZM23.4208 54.75C23.1542 52.8343 22.1974 51.0817 20.73 49.8216C19.2626 48.5615 17.3857 47.8804 15.4517 47.9062C13.5228 47.8878 11.6533 48.5723 10.1923 49.8317C8.73133 51.0912 7.77888 52.8395 7.51291 54.75L5.26208 69.715C5.1943 70.0207 5.19018 70.3371 5.24999 70.6445C5.3098 70.9518 5.43224 71.2436 5.60971 71.5016C5.78717 71.7596 6.01585 71.9783 6.2815 72.1441C6.54715 72.3099 6.84409 72.4192 7.15383 72.4652C7.46356 72.5113 7.77946 72.4931 8.08185 72.4117C8.38424 72.3304 8.66664 72.1876 8.91147 71.9924C9.1563 71.7972 9.35832 71.5537 9.50495 71.277C9.65158 71.0003 9.73967 70.6964 9.76375 70.3842L10.5242 65.3654H20.4096L21.2917 70.2625C21.3657 70.8053 21.6351 71.3025 22.0495 71.6609C22.4638 72.0192 22.9947 72.2142 23.5425 72.2092H23.8771C24.4734 72.119 25.0097 71.7964 25.3688 71.3119C25.7279 70.8274 25.8805 70.2205 25.7933 69.6237L23.4208 54.75ZM11.2542 60.8333L12.1667 55.2975C12.3003 54.4782 12.7209 53.7332 13.3534 53.1955C13.9858 52.6579 14.7889 52.3627 15.619 52.3627C16.449 52.3627 17.2521 52.6579 17.8845 53.1955C18.517 53.7332 18.9376 54.4782 19.0712 55.2975L19.71 60.8333H11.2542ZM71.4792 28.1658C71.4805 26.1217 71.0697 24.0983 70.2714 22.2166C69.4731 20.3348 68.3037 18.6332 66.8329 17.2136C65.3622 15.794 63.6204 14.6854 61.7116 13.9542C59.8028 13.2229 57.7661 12.8839 55.7233 12.9575C53.7051 8.67636 50.318 5.18971 46.0971 3.04841C41.8762 0.907114 37.0622 0.233243 32.4155 1.13327C27.7689 2.03329 23.5546 4.45589 20.4385 8.01833C17.3224 11.5808 15.4821 16.0799 15.2083 20.805C13.5522 20.4669 11.8416 20.5012 10.2003 20.9053C8.559 21.3094 7.02803 22.0732 5.71812 23.1415C4.40821 24.2098 3.35211 25.5559 2.6262 27.0824C1.9003 28.6089 1.52274 30.2776 1.52083 31.9679C1.52083 43.5567 13.6875 43.3742 13.6875 43.3742H57.7917C57.7917 43.3742 71.4792 41.5796 71.4792 28.1658Z" fill="#00A79D"/>
</svg>
