<svg width="65" height="65" viewBox="0 0 65 65" fill="none" xmlns="http://www.w3.org/2000/svg">
<path d="M51.4583 35.6796L51.7292 17.4146C51.7526 15.8389 51.228 14.304 50.2449 13.0724C49.2617 11.8408 47.8813 10.989 46.3396 10.6627L22.2354 5.56563C21.2458 5.35733 20.2222 5.37244 19.2392 5.60986C18.2562 5.84728 17.3386 6.30103 16.5532 6.93803C15.7677 7.57504 15.1343 8.37925 14.6991 9.29207C14.2639 10.2049 14.0378 11.2033 14.0373 12.2146V40.1971C14.0378 41.199 14.2598 42.1884 14.6873 43.0946C15.1149 44.0007 15.7374 44.8011 16.5105 45.4385C17.2835 46.0759 18.1878 46.5346 19.1588 46.7817C20.1298 47.0287 21.1434 47.0581 22.1271 46.8677L45.9604 42.2473C47.4911 41.9493 48.8728 41.134 49.8738 39.9382C50.8748 38.7424 51.4343 37.2389 51.4583 35.6796ZM41.9792 37.4563L36.9715 37.9979L32.6977 18.7688L30.1248 18.6388L30.0571 38.5125L26.0515 38.9269L26.0812 18.4167L20.7621 18.1458V13.4956L35.8637 14.6304L39.5119 31.869L43.5013 15.2181L47.6396 15.5377L41.9792 37.4563ZM31.5927 52.6771C31.5927 51.5369 30.6854 50.8354 29.0658 50.8354C28.5589 50.8 28.0511 50.8926 27.5893 51.1046C27.1274 51.3166 26.7262 51.6413 26.4225 52.0488L27.5275 52.6771C27.7069 52.4484 27.9371 52.2647 28.1999 52.1406C28.4627 52.0164 28.7509 51.9553 29.0415 51.9621C29.6725 51.9621 30.0137 52.2329 30.0137 52.6771V53.021C27.3812 53.319 26.1056 54.0556 26.1056 55.445C26.0935 55.6886 26.1332 55.932 26.2222 56.159C26.3111 56.3861 26.4473 56.5917 26.6216 56.7622C26.796 56.9327 27.0046 57.0643 27.2336 57.1481C27.4626 57.232 27.7068 57.2663 27.95 57.2488C28.6804 57.251 29.395 57.0361 30.0029 56.6313L30.1465 57.1729H31.5927V52.6771ZM29.9677 55.4775C29.5624 55.8767 29.0223 56.1096 28.4537 56.1302C28.3508 56.1291 28.2492 56.1067 28.1552 56.0645C28.0613 56.0223 27.9771 55.9611 27.908 55.8848C27.8388 55.8086 27.7862 55.7188 27.7533 55.6212C27.7205 55.5236 27.7081 55.4203 27.7171 55.3177C27.7171 54.5838 28.4402 54.1883 29.9677 54.0015V55.4775ZM36.5165 50.8273C35.7294 50.8621 34.9776 51.1639 34.385 51.6831L34.236 50.9465L32.8819 51.1333V57.1675H34.5069V52.7177C34.9177 52.3147 35.4578 52.0701 36.0317 52.0271C36.6248 52.0271 36.8225 52.3683 36.8225 53.1321V57.1675H38.4475V52.8342C38.4867 52.5682 38.4645 52.2967 38.3825 52.0406C38.3004 51.7845 38.1609 51.5506 37.9744 51.3569C37.788 51.1631 37.5597 51.0146 37.3069 50.9228C37.0542 50.831 36.7838 50.7984 36.5165 50.8273ZM43.8533 51.6588C43.7315 51.3554 43.2629 50.8273 42.0658 50.83C40.7442 50.83 39.5715 51.9919 39.5715 54.08C39.5715 56.1681 40.7117 57.181 42.1552 57.181C42.4826 57.2101 42.8111 57.1392 43.0973 56.9777C43.3836 56.8162 43.6141 56.5717 43.7585 56.2765L43.7829 56.3008V57.024C43.7829 57.9935 43.3767 58.3971 42.529 58.3971C41.6163 58.3971 41.4267 58.0938 41.3617 57.7904L39.7367 58.0477C39.9642 59.1148 41.0908 59.5996 42.3123 59.5942C45.2698 59.5752 45.351 57.869 45.351 56.8317V50.9438H43.9698L43.8533 51.6588ZM42.4504 55.8404C41.2533 55.8404 41.1965 54.581 41.1965 53.8146C41.1965 52.4144 41.8519 51.9865 42.4396 51.9865C43.3198 51.9865 43.7938 52.7773 43.7938 53.7469C43.7938 54.5702 43.6908 55.8296 42.4504 55.8404ZM52.0975 53.9852C52.0975 51.9675 51.0304 50.8273 49.2429 50.8273C47.4554 50.8273 46.345 52.0027 46.345 54.0773C46.2854 54.4884 46.3175 54.9076 46.4389 55.3049C46.5604 55.7021 46.7682 56.0676 47.0475 56.3751C47.3268 56.6826 47.6706 56.9245 48.0544 57.0835C48.4382 57.2425 48.8524 57.3147 49.2673 57.2948C49.8056 57.3398 50.3461 57.2375 50.8308 56.999C51.3155 56.7605 51.7262 56.3946 52.019 55.9406L50.8219 55.2771C50.6795 55.5227 50.4742 55.726 50.2271 55.8659C49.98 56.0059 49.7002 56.0775 49.4163 56.0733C48.4539 56.0733 47.9664 55.4829 47.9537 54.3021H52.084C52.084 54.1992 52.0975 54.0908 52.0975 53.9852ZM47.9781 53.2513C48.0431 52.409 48.5035 51.9296 49.2429 51.9296C49.416 51.9188 49.5894 51.9463 49.7508 52.01C49.9121 52.0736 50.0575 52.172 50.1766 52.2981C50.2957 52.4242 50.3857 52.5749 50.4401 52.7396C50.4945 52.9044 50.512 53.079 50.4915 53.2513H47.9781ZM17.0896 48.7825C16.5097 48.7618 15.9322 48.8655 15.3958 49.0867C14.8594 49.3078 14.3766 49.6413 13.9798 50.0647C13.5831 50.4881 13.2817 50.9916 13.0959 51.5413C12.91 52.0909 12.8441 52.674 12.9025 53.2513C12.8441 53.8285 12.91 54.4116 13.0959 54.9613C13.2817 55.5109 13.5831 56.0144 13.9798 56.4378C14.3766 56.8612 14.8594 57.1947 15.3958 57.4159C15.9322 57.637 16.5097 57.7407 17.0896 57.72C17.6697 57.7411 18.2475 57.6377 18.7842 57.4167C19.321 57.1957 19.8041 56.8623 20.2011 56.4388C20.5982 56.0154 20.8998 55.5118 21.0858 54.9619C21.2718 54.4121 21.3378 53.8288 21.2794 53.2513C21.3378 52.6738 21.2718 52.0904 21.0858 51.5406C20.8998 50.9907 20.5982 50.4871 20.2011 50.0637C19.8041 49.6402 19.321 49.3068 18.7842 49.0858C18.2475 48.8648 17.6697 48.7614 17.0896 48.7825ZM17.0896 55.8242C15.4267 55.8242 15.1206 54.3265 15.1206 53.2404C15.1206 52.1544 15.4267 50.6594 17.0896 50.6594C18.7525 50.6594 19.0612 52.1571 19.0612 53.2404C19.0612 54.3238 18.7552 55.835 17.0896 55.835V55.8242ZM23.7385 51.6967V50.9654H22.184V57.1702H23.8333V53.0427C24.0825 52.501 24.8598 52.3819 25.5694 52.3819H25.6479V50.849H25.4394C25.1136 50.8692 24.7951 50.9546 24.5029 51.1002C24.2108 51.2459 23.9508 51.4487 23.7385 51.6967Z" fill="#FF5F00" fill-opacity="0.71"/>
</svg>
