<svg width="60" height="60" viewBox="0 0 60 60" fill="none" xmlns="http://www.w3.org/2000/svg">
<path fill-rule="evenodd" clip-rule="evenodd" d="M12.5 2.5C9.84784 2.5 7.3043 3.55357 5.42893 5.42893C3.55357 7.3043 2.5 9.84784 2.5 12.5V47.5C2.5 50.1522 3.55357 52.6957 5.42893 54.5711C7.3043 56.4464 9.84784 57.5 12.5 57.5H47.5C50.1522 57.5 52.6957 56.4464 54.5711 54.5711C56.4464 52.6957 57.5 50.1522 57.5 47.5V12.5C57.5 9.84784 56.4464 7.3043 54.5711 5.42893C52.6957 3.55357 50.1522 2.5 47.5 2.5H12.5ZM50 30C49.9992 34.3063 48.6084 38.4973 46.0346 41.9497C43.4609 45.4022 39.8415 47.9318 35.7147 49.1622C31.588 50.3927 27.1743 50.2583 23.1301 48.7792C19.0858 47.3 15.627 44.5549 13.268 40.9523C10.9089 37.3497 9.77571 33.0818 10.0368 28.7835C10.2979 24.4851 11.9393 20.3858 14.7171 17.0952C17.4948 13.8046 21.2604 11.4984 25.454 10.5196C29.6475 9.54076 34.045 9.94161 37.9925 11.6625C28.3625 12.7225 19.4075 20.325 19.4075 30.2375C19.4075 33.0468 20.5235 35.741 22.51 37.7275C24.4964 39.714 27.1907 40.83 30 40.83C32.8093 40.83 35.5036 39.714 37.49 37.7275C39.4765 35.741 40.5925 33.0468 40.5925 30.2375V30.19C40.58 27.7289 39.7115 25.3488 38.1359 23.458C36.5604 21.5673 34.376 20.2837 31.9575 19.8275C32.1027 18.039 32.745 16.3268 33.8119 14.884C34.8787 13.4412 36.3276 12.3254 37.995 11.6625C41.5637 13.2189 44.6006 15.783 46.7331 19.0403C48.8656 22.2977 50.001 26.1067 50 30Z" fill="#CC2D32"/>
</svg>
