<svg width="77" height="77" viewBox="0 0 77 77" fill="none" xmlns="http://www.w3.org/2000/svg">
<path d="M19.25 13.0625C19.25 11.0568 20.0468 9.13325 21.465 7.71501C22.8832 6.29676 24.8068 5.5 26.8125 5.5H50.1875C52.1932 5.5 54.1168 6.29676 55.535 7.71501C56.9532 9.13325 57.75 11.0568 57.75 13.0625V63.9375C57.75 65.9432 56.9532 67.8668 55.535 69.285C54.1168 70.7032 52.1932 71.5 50.1875 71.5H26.8125C24.8068 71.5 22.8832 70.7032 21.465 69.285C20.0468 67.8668 19.25 65.9432 19.25 63.9375V13.0625ZM33.6875 57.75C33.1405 57.75 32.6159 57.9673 32.2291 58.3541C31.8423 58.7409 31.625 59.2655 31.625 59.8125C31.625 60.3595 31.8423 60.8841 32.2291 61.2709C32.6159 61.6577 33.1405 61.875 33.6875 61.875H43.3125C43.8595 61.875 44.3841 61.6577 44.7709 61.2709C45.1577 60.8841 45.375 60.3595 45.375 59.8125C45.375 59.2655 45.1577 58.7409 44.7709 58.3541C44.3841 57.9673 43.8595 57.75 43.3125 57.75H33.6875Z" fill="#FF2B00" fill-opacity="0.66"/>
</svg>
