<svg width="70" height="70" viewBox="0 0 70 70" fill="none" xmlns="http://www.w3.org/2000/svg">
<path d="M32.0833 40.8333V64.1667H20.4167C18.096 64.1667 15.8704 63.2448 14.2295 61.6039C12.5885 59.9629 11.6667 57.7373 11.6667 55.4167V43.75C11.6667 42.9765 11.974 42.2346 12.5209 41.6876C13.0679 41.1406 13.8098 40.8333 14.5833 40.8333H32.0833ZM55.4167 40.8333C56.1902 40.8333 56.9321 41.1406 57.4791 41.6876C58.026 42.2346 58.3333 42.9765 58.3333 43.75V55.4167C58.3333 57.7373 57.4115 59.9629 55.7705 61.6039C54.1296 63.2448 51.904 64.1667 49.5833 64.1667H37.9167V40.8333H55.4167ZM48.125 5.83333C49.8473 5.83298 51.5417 6.2684 53.0505 7.09907C54.5593 7.92974 55.8334 9.12865 56.7542 10.5842C57.6749 12.0397 58.2125 13.7046 58.3167 15.4238C58.421 17.1429 58.0886 18.8605 57.3504 20.4167H58.3333C59.8804 20.4167 61.3642 21.0313 62.4581 22.1252C63.5521 23.2192 64.1667 24.7029 64.1667 26.25V29.1667C64.1667 30.7138 63.5521 32.1975 62.4581 33.2915C61.3642 34.3854 59.8804 35 58.3333 35H37.9167V20.4167H32.0833V35H11.6667C10.1196 35 8.63583 34.3854 7.54187 33.2915C6.44791 32.1975 5.83333 30.7138 5.83333 29.1667V26.25C5.83333 24.7029 6.44791 23.2192 7.54187 22.1252C8.63583 21.0313 10.1196 20.4167 11.6667 20.4167H12.6496C12.0017 19.0492 11.666 17.5548 11.6667 16.0417C11.6667 10.4038 16.2371 5.83333 21.8254 5.83333C26.9442 5.74583 31.4854 9.01834 34.6033 14.3908L35 15.0996C38.0129 9.51709 42.4667 6.01709 47.5154 5.83917L48.125 5.83333ZM21.875 11.6667C20.7147 11.6667 19.6019 12.1276 18.7814 12.9481C17.9609 13.7685 17.5 14.8813 17.5 16.0417C17.5 17.202 17.9609 18.3148 18.7814 19.1353C19.6019 19.9557 20.7147 20.4167 21.875 20.4167H31.0421C28.8808 14.8604 25.3575 11.6083 21.875 11.6667ZM48.0754 11.6667C44.6337 11.6083 41.1192 14.8633 38.9579 20.4167H48.125C49.2853 20.4101 50.3955 19.9429 51.2113 19.1177C52.0271 18.2926 52.4818 17.1772 52.4752 16.0169C52.4686 14.8566 52.0014 13.7464 51.1763 12.9305C50.3511 12.1147 49.2357 11.6601 48.0754 11.6667Z" fill="#A200FF" fill-opacity="0.62"/>
</svg>
