<svg width="60" height="60" viewBox="0 0 60 60" fill="none" xmlns="http://www.w3.org/2000/svg">
<path d="M17.8425 59.655C19.8175 59.655 22.1125 59.18 24.72 58.27C28.595 56.925 31.68 55.0675 34.685 53.2475L35.475 52.735C38.7827 50.7149 41.9287 48.4414 44.885 45.935C51.1358 41.0916 55.8697 34.5602 58.5275 27.1125C59.515 24.2675 60.9 18.6525 59.1975 13.395C57.9466 9.54867 55.4231 6.24303 52.0425 4.0225C51.6475 3.7075 47.2975 0.347504 39.035 0.347504C31.5225 0.347504 23.26 3.115 14.52 8.6475L14.245 8.8475L13.4525 9.36C11.4297 10.6311 9.50058 12.0456 7.68 13.5925C3.9625 17.0325 -0.2275 22.765 0.00999978 27.6675C0.0874998 29.6425 1.0775 31.5025 2.6975 32.6875C4.29336 33.8713 6.24725 34.4715 8.2325 34.3875C12.74 34.3875 17.645 32.0175 21.005 30.0375L21.6375 29.645L23.3775 28.5375L23.97 28.1425C28.715 25.0575 33.6575 21.855 39.2325 19.9975C40.4814 19.5682 41.7875 19.3281 43.1075 19.285C43.6666 19.2896 44.2233 19.3567 44.7675 19.485C45.5491 19.6385 46.2857 19.967 46.9222 20.4459C47.5587 20.9248 48.0784 21.5416 48.4425 22.25C49.75 24.78 49.4325 28.775 47.6525 32.45C44.6731 38.133 40.5064 43.1088 35.435 47.04C32.9644 49.1472 30.2894 51.0022 27.45 52.5775L27.2125 52.655C26.0381 53.338 24.8079 53.9201 23.535 54.395L23.335 54.475L22.31 54.87C16.735 56.295 20.135 51.5475 20.135 51.5475C21.32 50.205 22.585 48.9775 23.93 47.7925C24.72 47.12 25.5125 46.4075 26.2625 45.6575L26.4225 45.5C27.41 44.55 28.755 43.245 28.675 41.3875C28.5575 38.9375 25.9875 37.4325 23.535 37.355H23.3775C21.0025 37.355 18.83 38.66 17.3675 39.805C15.8085 41.0285 14.4591 42.4977 13.3725 44.155C11.8725 46.4075 8.7475 52.22 11.7925 56.8475C13.0175 58.705 15.075 59.655 17.8425 59.655Z" fill="#CC2D32"/>
</svg>
