<svg width="53" height="54" viewBox="0 0 53 54" fill="none" xmlns="http://www.w3.org/2000/svg">
<path d="M35.4197 27.9737C35.3295 28.3174 35.6756 28.6975 36.1866 28.8267C36.6984 28.9542 37.1803 28.7778 37.2681 28.435L40.2684 16.4263C40.3554 16.0835 40.01 15.6984 39.5016 15.575C38.9898 15.4425 38.5045 15.6189 38.42 15.9634L35.4197 27.9737Z" fill="#808285"/>
<path d="M36.2056 28.054C36.1849 28.1359 36.1805 28.2211 36.1927 28.3047C36.2049 28.3883 36.2335 28.4686 36.2768 28.5412C36.3201 28.6137 36.3773 28.677 36.4451 28.7274C36.5129 28.7778 36.5899 28.8144 36.6719 28.835C36.837 28.8746 37.011 28.8477 37.1564 28.7599C37.3018 28.6722 37.4068 28.5308 37.4486 28.3662L40.4523 16.3593C40.4858 16.1973 40.4555 16.0287 40.3677 15.8886C40.2798 15.7485 40.1412 15.6478 39.9809 15.6075C39.8205 15.5672 39.6508 15.5904 39.5071 15.6723C39.3635 15.7542 39.257 15.8885 39.2101 16.0471L36.2056 28.054Z" fill="#9D9EA4"/>
<path d="M33.8629 12.0621C34.0376 9.30442 35.6723 7.39476 37.4776 6.4772C38.4101 5.99937 39.5107 5.66978 40.7901 5.72609C43.7267 5.85362 45.5618 7.74588 46.2632 9.75906C46.6292 10.8025 46.746 12.1457 46.2533 13.4765C45.4028 15.8011 43.1561 17.1741 40.7413 16.8379C39.3202 16.6375 38.3596 15.9253 37.6921 14.9539C36.9418 13.8649 36.5104 11.8161 37.6466 10.2725C38.5923 8.98062 41.0005 8.09204 42.6153 9.60668C43.2041 10.1541 43.7515 11.2447 43.3656 12.39C43.0418 13.3755 41.9967 14.0429 41.0129 13.7755C40.2908 13.5817 39.909 13.0492 40.0514 12.2219C40.1384 12.2012 40.1616 12.4712 40.2552 12.602C40.3487 12.7329 40.5135 12.8736 40.6949 12.9399C41.7441 13.3382 42.424 12.424 42.3106 11.4691C42.2261 10.699 41.5172 10.0597 40.5657 10.0464C39.5852 10.0274 38.7049 10.6791 38.372 11.5693C37.7468 13.2446 38.8374 15.0682 40.579 15.512C42.4762 15.9957 44.1846 14.8934 44.8943 13.3954C45.5576 11.9975 45.2918 10.6584 44.7833 9.6191C44.072 8.16243 42.4083 6.87635 40.1326 7.04115C37.9571 7.19767 35.6922 8.6974 35.2351 11.6099C35.0827 12.5929 35.1638 13.2952 35.3783 14.0794C35.7535 15.4773 36.5203 16.7145 37.9414 17.6494C39.3434 18.5703 41.4178 18.8991 42.988 18.5165C44.4571 18.1587 45.7713 17.3778 46.717 16.2217C47.8486 14.837 48.4295 13.0834 48.3484 11.2969C48.2662 9.779 47.7519 8.31623 46.8661 7.0809C46.0537 5.95299 44.5647 4.80356 42.9557 4.2926L42.0265 4.05742C40.2046 3.83548 38.5732 4.04003 37.1687 4.6222C38.0579 4.07274 39.0483 3.70719 40.0813 3.54717C41.1142 3.38715 42.1688 3.4359 43.1826 3.69056C47.3803 4.73979 49.9343 9.0005 48.8859 13.1999C47.8342 17.401 43.5776 19.9549 39.3773 18.9065C37.8963 18.5368 36.5555 17.7425 35.5198 16.6211C34.484 15.4998 33.7985 14.1003 33.5473 12.5946C33.6724 12.4604 33.7834 12.2873 33.8645 12.0621" fill="#DEB5E5"/>
<path d="M44.9092 13.3962C44.5589 14.133 43.9917 14.745 43.2836 15.1502L42.8919 13.2016C43.1089 12.9714 43.2836 12.6964 43.3838 12.3909C43.5364 11.9279 43.5522 11.4308 43.4294 10.959L45.0061 10.0961C45.3647 11.0526 45.4748 12.2012 44.9092 13.3962Z" fill="#29ABE2"/>
<path d="M43.0029 18.5148C42.501 18.6303 41.9865 18.6821 41.4717 18.6689L41.3392 16.8801C42.275 16.9058 43.161 16.6814 43.9387 16.2458L45.6115 17.29C44.8342 17.8719 43.9462 18.2887 43.002 18.5148M46.8802 7.0809C47.5534 8.02306 48.015 9.09965 48.2333 10.2369L46.4562 10.3942C46.1971 9.28066 45.6357 8.26021 44.8339 7.44527L45.9866 6.08301C46.3328 6.40598 46.6375 6.74551 46.8802 7.0809Z" fill="#93278F"/>
<path d="M40.5947 15.5129C38.8531 15.0674 37.7625 13.2455 38.3877 11.5686C38.7206 10.6783 39.5985 10.0282 40.579 10.0456C41.5338 10.0605 42.2435 10.6998 42.3271 11.47C42.4373 12.4265 41.7574 13.3391 40.7115 12.9391C40.5359 12.8695 40.3827 12.7533 40.2684 12.6029C40.1781 12.472 40.155 12.1979 40.068 12.2228C39.9223 13.0509 40.3073 13.5826 41.0295 13.7763C41.0847 13.7929 41.1396 13.8048 41.1943 13.8119L41.5537 15.6255C41.2304 15.6307 40.9079 15.5928 40.5947 15.5129ZM46.91 15.9974L45.3755 15.0392C45.7579 14.5695 46.0596 14.0394 46.2682 13.4708C46.4226 13.0527 46.5228 12.6166 46.5663 12.1731L48.3592 12.0149C48.2788 13.4561 47.7747 14.8416 46.91 15.9974ZM37.953 17.6536C37.1414 17.1178 36.5385 16.4802 36.1054 15.7729L37.7078 14.9606C38.1617 15.6148 38.7505 16.158 39.5272 16.4951L39.663 18.408C39.0582 18.2443 38.4817 17.9899 37.953 17.6536Z" fill="#29ABE2"/>
<path d="M35.3899 14.0786C35.1788 13.2952 35.0951 12.5929 35.25 11.6108C35.5158 9.92305 36.3895 8.70571 37.5033 7.95294L38.29 9.63321C38.0513 9.81661 37.8387 10.0317 37.6582 10.2725C36.9725 11.2042 36.859 12.318 37.0404 13.2952L35.4057 14.1233C35.4007 14.1106 35.3954 14.0951 35.3899 14.0769" fill="#93278F"/>
<path d="M40.1475 7.04037C41.8501 6.91947 43.2058 7.60681 44.0836 8.56826L42.4588 9.45518C41.6878 8.83409 40.7653 8.70904 39.9115 8.88461L39.1281 7.21179C39.4676 7.12125 39.8074 7.06466 40.1475 7.04037ZM38.7596 4.14856L38.9177 5.92572C38.4035 6.06153 37.924 6.25117 37.4867 6.47807C36.8891 6.78305 36.3413 7.17704 35.862 7.64656L34.5187 6.4524C35.6491 5.26818 37.076 4.48064 38.7596 4.14856ZM33.8753 12.0621C33.3958 13.354 32.0683 12.978 32.0592 12.7867C32.0137 11.0924 32.5586 9.28625 33.4281 7.87015L34.7647 9.05851C34.2382 9.97672 33.9336 11.0053 33.8753 12.0621Z" fill="#29ABE2"/>
<path d="M42.0381 4.0591L42.9706 4.29263C43.5205 4.46737 44.0554 4.71829 44.5531 5.01476L43.3913 6.39027C42.5865 5.98383 41.7028 5.75748 40.8017 5.72695C40.7661 5.72363 40.7272 5.72363 40.6916 5.72363L40.5334 3.97215C41.0364 3.96725 41.5391 3.9963 42.0381 4.0591Z" fill="#93278F"/>
<path d="M33.4314 7.87098C33.4952 7.76216 33.5632 7.6558 33.6351 7.55215C33.9073 7.15465 34.2029 6.78779 34.522 6.45157L35.8653 7.64573C35.4373 8.06489 35.0682 8.54014 34.768 9.05851L33.4314 7.87098ZM40.5326 3.97217L40.6908 5.72365C40.0929 5.70749 39.4958 5.77551 38.9169 5.92571L38.7587 4.14856C39.3219 4.03842 39.9148 3.97714 40.5326 3.97217ZM45.9858 6.08306L44.8339 7.44532C44.4102 7.02112 43.9232 6.66521 43.3904 6.39029L44.5523 5.01478C45.0806 5.33029 45.5651 5.69384 45.9858 6.08306ZM48.3625 11.2986C48.3758 11.5412 48.3758 11.7781 48.3625 12.0174L46.5696 12.1756C46.6278 11.5797 46.5906 10.9784 46.4595 10.3943L48.2366 10.2369C48.3012 10.5892 48.3432 10.943 48.3625 11.2986ZM46.7311 16.2234C46.4007 16.6227 46.0247 16.9818 45.6106 17.2934L43.9378 16.2491C44.4858 15.9368 44.9726 15.5277 45.3746 15.0417L46.9091 15.9999C46.8517 16.0771 46.7918 16.1517 46.7311 16.2234ZM39.663 18.4072L39.5272 16.4942C39.8924 16.6566 40.3007 16.7758 40.7562 16.8379C40.9544 16.8672 41.1487 16.8835 41.3392 16.8868L41.4717 18.6755C40.8601 18.6607 40.2526 18.5705 39.663 18.4072ZM35.4065 14.1258L37.0412 13.2977C37.1638 13.9403 37.4064 14.5258 37.7078 14.9622L36.1054 15.7746C35.7954 15.2624 35.5601 14.7086 35.4065 14.1299M39.1206 7.21179L39.904 8.88461C39.3148 9.00865 38.7615 9.26491 38.2859 9.63406L37.4992 7.95379C37.9954 7.61966 38.5432 7.36844 39.1206 7.21179ZM44.7933 9.61998C44.8678 9.7707 44.9399 9.93053 45.0011 10.0962L43.4244 10.9591C43.2877 10.4433 43.0125 9.97476 42.6286 9.60425C42.5713 9.55341 42.513 9.50371 42.4538 9.45518L44.0786 8.56826C44.3726 8.89372 44.6152 9.24981 44.7933 9.61998ZM41.5553 15.6264L41.1959 13.8128C41.8203 13.9163 42.4522 13.6587 42.8919 13.2024L43.2836 15.151C42.7561 15.4509 42.162 15.6143 41.5553 15.6264Z" fill="#FBB03B"/>
<path d="M26.9488 6.96417L42.9673 11.118L38.7836 27.2549L22.7643 23.101L26.9488 6.96417Z" fill="#00A79D"/>
<path d="M33.6525 8.23944L36.4814 8.97316L32.0725 25.9828L29.2436 25.25L33.6525 8.23944Z" fill="#EF4136"/>
<path d="M24.0488 16.0967L24.7833 13.2703L41.7922 17.6875L41.0576 20.5148L24.0488 16.0967Z" fill="#EF4136"/>
<path d="M3.37047 6.98902L25.9617 0.941223L32.0534 23.6981L9.46216 29.7459L3.37047 6.98902Z" fill="#FFF200"/>
<path d="M22.9184 26.8044L18.9342 27.8735L12.5047 3.87939L16.4938 2.80945L22.9184 26.8044Z" fill="#27AAE1"/>
<path d="M6.16539 20.2398L5.09711 16.2499L29.0953 9.82367L30.1636 13.8127L6.16539 20.2398Z" fill="#27AAE1"/>
<path d="M7.11691 18.3906L3.43009 17.9675L0.536625 50.5128L5.38198 49.9463L12.5047 31.7524L7.11691 18.3906Z" fill="#BE1E2D"/>
<path d="M0.536625 50.5086L7.55084 53.7019L5.38198 49.9422L0.536625 50.5086Z" fill="#CC2D32"/>
<path d="M7.11691 18.3906L5.38198 49.9422L7.55084 53.7019L14.103 29.1728L8.49242 17.3729L7.11691 18.3906Z" fill="#840C1A"/>
<path d="M48.8594 17.9675L8.49242 17.3729L7.55084 53.7019L51.4183 51.0933L48.8594 17.9675Z" fill="#C92B3D"/>
<path d="M23.922 21.4125C31.1044 23.0422 37.9074 26.4226 45.2587 23.4521C46.5762 22.9188 47.8673 22.3251 49.1492 21.7147L48.8602 17.9666L8.49159 17.3729L8.27214 25.8115C12.9047 22.5636 17.7302 20.0063 23.922 21.4125Z" fill="#BE1E2D"/>
<path d="M29.0506 29.3881C19.7872 26.6594 15.1712 28.6171 8.08002 33.3043L7.7173 47.3518C10.2547 45.3552 12.5916 42.9693 15.2657 40.8493C19.48 37.512 23.4384 38.4925 28.3235 39.4183C35.2665 40.7359 42.4099 41.7835 49.2171 39.1467C49.6502 38.9778 50.0419 38.7898 50.4535 38.6093L49.6502 28.2196C43.3606 30.7926 36.8656 31.6895 29.0481 29.3881" fill="#DB425F"/>
<path d="M33.795 47.0106C30.3897 46.4591 26.2756 44.9088 22.8513 45.009C17.721 45.1548 15.2872 48.3066 11.7975 51.3848C10.9219 52.1584 10.0183 52.8998 9.08867 53.6075L51.4141 51.0941L50.9612 45.207C45.3962 47.1506 39.7417 47.9737 33.7933 47.0106" fill="#D1334A"/>
<path d="M51.0754 46.0168L7.68997 47.5157L7.54753 53.7018L52.4568 51.1761L51.0754 46.0168Z" fill="#BE1E2D"/>
<path d="M19.4452 22.8534C19.4452 24.1593 18.1831 25.2226 16.6296 25.2226C15.0793 25.2226 13.8173 24.1593 13.8173 22.8534C13.8173 21.5441 15.0793 20.4858 16.6296 20.4858C18.1831 20.4849 19.4452 21.5441 19.4452 22.8534ZM46.2524 22.3159C46.2524 23.6202 44.9937 24.6835 43.4401 24.6835C41.8866 24.6835 40.6245 23.6202 40.6245 22.3159C40.6245 21.0066 41.8866 19.9483 43.4401 19.9483C44.9937 19.9475 46.2524 21.0066 46.2524 22.3159Z" fill="#FFF200"/>
<path d="M17.9372 24.5005C18.704 28.5277 18.1989 33.5379 26.5894 36.5034C27.9939 36.9986 29.7843 37.4284 31.5747 37.5319C33.52 37.6487 35.1829 37.3348 36.4847 36.785C39.4825 35.4997 40.5823 33.4725 41.282 31.7028C42.2692 29.2018 42.7776 26.5825 42.5863 24.0111C42.5375 23.2633 45.2504 23.2733 45.3051 24.0244C45.4699 26.252 45.0045 28.4631 44.4049 30.6494C43.884 32.5599 43.0194 34.4853 40.9359 36.1581C39.9165 36.9771 38.5666 37.7414 36.7091 38.2367C35.0156 38.6896 32.9834 38.7766 30.9537 38.6375C26.8818 38.3526 23.286 36.9158 20.9333 35.5146C18.3927 34.0033 17.2242 32.1226 16.4863 30.3612C15.6706 28.4101 15.5994 26.435 15.23 24.489C15.0876 23.7436 17.803 23.7536 17.9422 24.4997" fill="#E6E7E8"/>
</svg>
