<svg width="92" height="92" viewBox="0 0 92 92" fill="none" xmlns="http://www.w3.org/2000/svg">
<path fill-rule="evenodd" clip-rule="evenodd" d="M48.6483 1.70858C48.3429 1.29421 47.9444 0.957384 47.485 0.725257C47.0256 0.49313 46.518 0.372192 46.0033 0.372192C45.4885 0.372192 44.981 0.49313 44.5216 0.725257C44.0621 0.957384 43.6637 1.29421 43.3583 1.70858L12.2229 43.9891C11.8071 44.5537 11.5828 45.2364 11.5828 45.9376C11.5828 46.6387 11.8071 47.3215 12.2229 47.886L43.3583 90.16C43.6637 90.5744 44.0621 90.9112 44.5216 91.1433C44.981 91.3754 45.4885 91.4964 46.0033 91.4964C46.518 91.4964 47.0256 91.3754 47.485 91.1433C47.9444 90.9112 48.3429 90.5744 48.6483 90.16L79.7772 47.886C80.1929 47.3215 80.4172 46.6387 80.4172 45.9376C80.4172 45.2364 80.1929 44.5537 79.7772 43.9891L48.6483 1.71515V1.70858Z" fill="#8FBFFA"/>
<path fill-rule="evenodd" clip-rule="evenodd" d="M80.408 45.6714L46.5849 56.7772C45.9122 56.9981 45.1861 56.9958 44.5149 56.7706L11.592 45.7043C11.5363 46.4834 11.7599 47.2569 12.2229 47.886L43.3583 90.16C43.6637 90.5744 44.0621 90.9112 44.5216 91.1433C44.981 91.3755 45.4885 91.4964 46.0033 91.4964C46.518 91.4964 47.0256 91.3755 47.485 91.1433C47.9444 90.9112 48.3429 90.5744 48.6483 90.16L79.7771 47.886C80.2461 47.2499 80.4701 46.4659 80.408 45.678V45.6714Z" fill="#2859C5"/>
</svg>
