<svg width="85" height="85" viewBox="0 0 85 85" fill="none" xmlns="http://www.w3.org/2000/svg">
<path d="M42.5 85C65.9721 85 85 65.9721 85 42.5C85 19.0279 65.9721 0 42.5 0C19.0279 0 0 19.0279 0 42.5C0 65.9721 19.0279 85 42.5 85Z" fill="#3E73C4"/>
<path d="M53.1834 48.1419C53.1834 42.5 49.7834 40.5662 42.9834 39.7587C38.1278 39.1133 37.1583 37.825 37.1583 35.5672C37.1583 33.3094 38.7786 31.8591 42.0139 31.8591C44.9278 31.8591 46.5481 32.8259 47.3556 35.2458C47.4404 35.4793 47.5944 35.6815 47.7971 35.8253C47.9997 35.9691 48.2414 36.0477 48.4898 36.0506H51.0797C51.2293 36.0546 51.3781 36.0282 51.5172 35.9729C51.6562 35.9177 51.7826 35.8348 51.8887 35.7292C51.9947 35.6236 52.0783 35.4976 52.1342 35.3588C52.1901 35.22 52.2172 35.0713 52.2139 34.9217V34.7623C51.8974 33.0116 51.0116 31.4144 49.694 30.2189C48.3765 29.0233 46.701 28.2964 44.9278 28.1509V24.2834C44.9278 23.638 44.4417 23.1545 43.6342 22.9925H41.2037C40.5583 22.9925 40.0722 23.4759 39.9102 24.2834V27.9916C35.0519 28.6344 31.9786 31.8591 31.9786 35.8912C31.9786 41.2091 35.2139 43.3048 42.0139 44.1123C46.5481 44.9172 48.0038 45.8867 48.0038 48.4659C48.0038 51.0425 45.738 52.8169 42.662 52.8169C38.4519 52.8169 36.9962 51.0451 36.5102 48.6253C36.3508 47.9825 35.862 47.6584 35.3759 47.6584H32.6241C32.4747 47.6548 32.3261 47.6815 32.1874 47.7369C32.0486 47.7923 31.9226 47.8753 31.8168 47.9808C31.711 48.0864 31.6278 48.2122 31.572 48.3509C31.5163 48.4895 31.4892 48.638 31.4925 48.7873V48.9467C32.138 52.9789 34.7305 55.8795 40.0722 56.687V60.5572C40.0722 61.2 40.5583 61.6861 41.3658 61.8455H43.7963C44.4417 61.8455 44.9278 61.362 45.0898 60.5572V56.6844C49.9481 55.8795 53.1834 52.4928 53.1834 48.1392V48.1419Z" fill="white"/>
<path d="M34.2444 65.0702C21.6166 60.5545 15.1406 46.5295 19.8369 34.1169C22.2647 27.3434 27.6064 22.1877 34.2444 19.7678C34.8925 19.4464 35.2139 18.963 35.2139 18.1555V15.8977C35.2139 15.2548 34.8925 14.7714 34.2444 14.6094C34.0823 14.6094 33.7583 14.6094 33.5962 14.7687C29.953 15.9065 26.5708 17.7537 23.6444 20.2039C20.718 22.6541 18.3052 25.6591 16.5448 29.0456C14.7845 32.4322 13.7115 36.1335 13.3875 39.9365C13.0636 43.7395 13.4951 47.569 14.6572 51.2045C17.5684 60.2358 24.5305 67.1686 33.5962 70.0692C34.2444 70.3906 34.8925 70.0692 35.0519 69.4237C35.2139 69.2644 35.2139 69.0997 35.2139 68.7783V66.5205C35.2139 66.037 34.7305 65.3942 34.2444 65.0702ZM51.4037 14.7714C50.7556 14.4473 50.1075 14.7714 49.9481 15.4142C49.7861 15.5762 49.7861 15.7383 49.7861 16.0597V18.3175C49.7861 18.963 50.2695 19.6058 50.7556 19.9298C63.3834 24.4455 69.8594 38.4705 65.1631 50.8831C62.7353 57.6566 57.3936 62.8123 50.7556 65.2322C50.1075 65.5536 49.7861 66.037 49.7861 66.8445V69.1023C49.7861 69.7452 50.1075 70.2286 50.7556 70.3906C50.9177 70.3906 51.2417 70.3906 51.4037 70.2313C55.047 69.0935 58.4292 67.2463 61.3556 64.7961C64.282 62.3459 66.6948 59.3409 68.4552 55.9544C70.2155 52.5678 71.2885 48.8665 71.6125 45.0635C71.9364 41.2605 71.5049 37.431 70.3428 33.7955C67.4316 24.6048 60.3075 17.672 51.4037 14.7714Z" fill="white"/>
</svg>
