<svg width="99" height="77" viewBox="0 0 99 77" fill="none" xmlns="http://www.w3.org/2000/svg">
<path d="M17.9979 76.6173V71.521C17.9979 69.567 16.8091 68.2932 14.7715 68.2932C13.7529 68.2932 12.6492 68.6329 11.885 69.7373C11.291 68.8028 10.4422 68.2932 9.16871 68.2932C8.31947 68.2932 7.47101 68.5478 6.79155 69.4823V68.4631H5.00877V76.6173H6.79155V72.1154C6.79155 70.6717 7.5557 69.9919 8.74448 69.9919C9.93248 69.9919 10.5273 70.7564 10.5273 72.1154V76.6173H12.31V72.1154C12.31 70.6717 13.1585 69.9919 14.2622 69.9919C15.451 69.9919 16.045 70.7564 16.045 72.1154V76.6173H17.9979ZM44.3996 68.4631H41.5135V65.9999H39.7307V68.4631H38.1177V70.0766H39.7303V73.8144C39.7303 75.6833 40.4945 76.7872 42.5321 76.7872C43.2962 76.7872 44.1447 76.5326 44.7395 76.1929L44.2298 74.6637C43.7205 75.0034 43.1265 75.0886 42.7019 75.0886C41.853 75.0886 41.5135 74.579 41.5135 73.7293V70.0766H44.3996V68.4631ZM59.511 68.2928C58.4924 68.2928 57.8133 68.8028 57.3887 69.4823V68.4631H55.6059V76.6173H57.3887V72.0306C57.3887 70.6717 57.9827 69.9071 59.0864 69.9071C59.4259 69.9071 59.8505 69.9922 60.1901 70.077L60.6994 68.3783C60.3598 68.2932 59.8505 68.2932 59.511 68.2932M36.6745 69.1429C35.8252 68.5482 34.6368 68.2936 33.3634 68.2936C31.3261 68.2936 29.968 69.3128 29.968 70.9267C29.968 72.286 30.9866 73.0502 32.7694 73.3052L33.6182 73.3903C34.5522 73.5598 35.0615 73.8148 35.0615 74.2396C35.0615 74.834 34.3824 75.2588 33.1936 75.2588C32.0048 75.2588 31.0713 74.834 30.4769 74.4095L29.6281 75.7684C30.562 76.4479 31.8355 76.7876 33.1085 76.7876C35.4857 76.7876 36.8442 75.6837 36.8442 74.1545C36.8442 72.7105 35.7405 71.9459 34.0425 71.6913L33.1936 71.6062C32.4295 71.521 31.8355 71.3516 31.8355 70.842C31.8355 70.2472 32.4295 69.9075 33.3634 69.9075C34.3824 69.9075 35.401 70.332 35.9103 70.587L36.6745 69.1429ZM84.0456 68.2936C83.0266 68.2936 82.3475 68.8032 81.9229 69.4827V68.4635H80.1401V76.6177H81.9229V72.031C81.9229 70.6721 82.5173 69.9075 83.6206 69.9075C83.9605 69.9075 84.3851 69.9926 84.7247 70.0774L85.234 68.3787C84.8944 68.2936 84.3851 68.2936 84.0456 68.2936ZM61.2938 72.5406C61.2938 75.0038 62.9914 76.7876 65.6235 76.7876C66.8118 76.7876 67.6607 76.533 68.5095 75.8535L67.6607 74.4095C66.9816 74.9191 66.3025 75.1737 65.5384 75.1737C64.0951 75.1737 63.0765 74.1545 63.0765 72.5406C63.0765 71.0118 64.0951 69.9922 65.5384 69.9075C66.3025 69.9075 66.9816 70.1621 67.6607 70.6721L68.5095 69.2281C67.6607 68.5482 66.8118 68.2936 65.6235 68.2936C62.9914 68.2936 61.2938 70.0774 61.2938 72.5406ZM77.7633 72.5406V68.4635H75.9806V69.4827C75.3862 68.7185 74.5373 68.2936 73.4336 68.2936C71.1416 68.2936 69.3588 70.0774 69.3588 72.5406C69.3588 75.0038 71.1416 76.7876 73.4336 76.7876C74.622 76.7876 75.4713 76.3631 75.9806 75.5985V76.6177H77.7633V72.5406ZM71.2262 72.5406C71.2262 71.0966 72.1602 69.9075 73.6881 69.9075C75.1313 69.9075 76.1503 71.0118 76.1503 72.5406C76.1503 73.9846 75.1313 75.1737 73.6881 75.1737C72.1602 75.0886 71.2262 73.9846 71.2262 72.5406ZM49.918 68.2936C47.5409 68.2936 45.8428 69.9922 45.8428 72.5406C45.8428 75.089 47.5405 76.7876 50.0027 76.7876C51.1911 76.7876 52.3799 76.4479 53.3138 75.6837L52.4646 74.4095C51.7855 74.9191 50.9367 75.2588 50.0878 75.2588C48.9841 75.2588 47.8804 74.7492 47.6256 73.3048H53.6534V72.6257C53.7384 69.9923 52.2105 68.2936 49.918 68.2936ZM49.9177 69.8224C51.021 69.8224 51.7855 70.5022 51.9549 71.7764H47.7103C47.88 70.6721 48.6442 69.8224 49.9177 69.8224ZM94.1474 72.5406V65.2357H92.3647V69.4827C91.7703 68.7185 90.9214 68.2936 89.8177 68.2936C87.5257 68.2936 85.7429 70.0774 85.7429 72.5406C85.7429 75.0038 87.5257 76.7876 89.8177 76.7876C91.0065 76.7876 91.8554 76.3631 92.3647 75.5985V76.6177H94.1474V72.5406ZM87.6107 72.5406C87.6107 71.0966 88.5443 69.9075 90.0726 69.9075C91.5158 69.9075 92.5344 71.0118 92.5344 72.5406C92.5344 73.9846 91.5158 75.1737 90.0726 75.1737C88.5443 75.0886 87.6107 73.9846 87.6107 72.5406ZM28.0147 72.5406V68.4635H26.2319V69.4827C25.6375 68.7185 24.7887 68.2936 23.685 68.2936C21.3929 68.2936 19.6101 70.0774 19.6101 72.5406C19.6101 75.0038 21.3929 76.7876 23.685 76.7876C24.8737 76.7876 25.7226 76.3631 26.2319 75.5985V76.6177H28.0147V72.5406ZM21.3929 72.5406C21.3929 71.0966 22.3268 69.9075 23.8547 69.9075C25.298 69.9075 26.317 71.0118 26.317 72.5406C26.317 73.9846 25.298 75.1737 23.8547 75.1737C22.3268 75.0886 21.3929 73.9846 21.3929 72.5406Z" fill="black"/>
<path d="M36.0801 6.54034H62.8217V54.6174H36.0801V6.54034Z" fill="#FF5F00"/>
<path d="M37.7782 30.5791C37.7782 20.8109 42.3623 12.1467 49.4083 6.54036C44.2302 2.46323 37.6935 0 30.5624 0C13.6678 0 0 13.6754 0 30.5791C0 47.4827 13.6678 61.1581 30.562 61.1581C37.6931 61.1581 44.2298 58.6949 49.4083 54.6174C42.3623 49.0962 37.7782 40.3472 37.7782 30.5791Z" fill="#EB001B"/>
<path d="M98.9018 30.5791C98.9018 47.4823 85.234 61.1581 68.3398 61.1581C61.2087 61.1581 54.672 58.6949 49.4934 54.6174C56.6245 49.0115 61.124 40.3472 61.124 30.5791C61.124 20.8109 56.5394 12.1467 49.4934 6.54036C54.6716 2.46323 61.2087 0 68.3398 0C85.234 0 98.9018 13.7606 98.9018 30.5791Z" fill="#F79E1B"/>
</svg>
