<svg width="75" height="75" viewBox="0 0 75 75" fill="none" xmlns="http://www.w3.org/2000/svg">
<path d="M68.4687 10.9375H6.53125C4.83741 10.9039 3.19925 11.5427 1.97522 12.714C0.7512 13.8853 0.0409889 15.4938 0 17.1875L0 57.8125C0.0409889 59.5062 0.7512 61.1147 1.97522 62.286C3.19925 63.4573 4.83741 64.0961 6.53125 64.0625H68.4687C70.1626 64.0961 71.8007 63.4573 73.0248 62.286C74.2488 61.1147 74.959 59.5062 75 57.8125V17.1875C74.959 15.4938 74.2488 13.8853 73.0248 12.714C71.8007 11.5427 70.1626 10.9039 68.4687 10.9375ZM26.625 31.9062L20.375 44.75C20.1873 45.1479 19.8914 45.485 19.5211 45.7226C19.1509 45.9602 18.7212 46.0889 18.2812 46.0937H16.2188C15.6381 46.0971 15.077 45.8847 14.6439 45.4979C14.2109 45.1111 13.9369 44.5773 13.875 44L12.9063 34.375C12.8771 34.1871 12.7829 34.0154 12.6401 33.8898C12.4974 33.7641 12.3151 33.6926 12.125 33.6875H10.9375C10.3159 33.6875 9.71976 33.4406 9.28022 33.001C8.84068 32.5615 8.59375 31.9653 8.59375 31.3437C8.59375 30.7221 8.84068 30.126 9.28022 29.6865C9.71976 29.2469 10.3159 29 10.9375 29H14.9375C15.5181 28.9967 16.0793 29.209 16.5123 29.5958C16.9453 29.9827 17.2193 30.5164 17.2813 31.0937L17.7813 36.25C17.8089 36.4173 17.8863 36.5723 18.0034 36.6949C18.1204 36.8176 18.2717 36.9021 18.4375 36.9375C18.6067 36.9675 18.781 36.9409 18.9336 36.8618C19.0861 36.7827 19.2083 36.6556 19.2813 36.5L22.4063 30C22.5189 29.6947 22.6938 29.4162 22.92 29.1822C23.1461 28.9482 23.4185 28.7639 23.7198 28.641C24.0211 28.5181 24.3447 28.4592 24.67 28.4683C24.9953 28.4773 25.3151 28.5539 25.6092 28.6933C25.9032 28.8327 26.165 29.0318 26.3779 29.2779C26.5907 29.524 26.75 29.8118 26.8456 30.1228C26.9412 30.4339 26.9709 30.7615 26.9329 31.0846C26.8949 31.4078 26.7901 31.7196 26.625 32V31.9062ZM32.4375 44.4062C32.3235 44.9356 32.0321 45.4101 31.6115 45.7511C31.1909 46.0921 30.6665 46.2791 30.125 46.2813C29.7787 46.279 29.4373 46.2001 29.1251 46.0501C28.813 45.9002 28.538 45.6829 28.3199 45.414C28.1018 45.145 27.9459 44.8311 27.8636 44.4948C27.7813 44.1584 27.7745 43.808 27.8437 43.4687L30.375 30.7812C30.4366 30.4796 30.5569 30.1931 30.7292 29.938C30.9015 29.6828 31.1224 29.4642 31.3792 29.2944C31.636 29.1246 31.9237 29.0071 32.226 28.9486C32.5282 28.89 32.839 28.8916 33.1406 28.9531C33.4423 29.0147 33.7288 29.135 33.9839 29.3073C34.239 29.4796 34.4577 29.7005 34.6275 29.9573C34.7972 30.2141 34.9147 30.5019 34.9733 30.8041C35.0319 31.1063 35.0303 31.4171 34.9687 31.7187L32.4375 44.4062ZM48.6875 31.6875C48.5329 32.2876 48.1469 32.802 47.614 33.1182C47.081 33.4345 46.4446 33.5268 45.8438 33.375C45.0313 33.1562 43.4063 32.875 42.7188 33.5625C42.0313 34.25 43.8437 35.125 44.25 35.3438C48.1562 37.75 48.4687 40.2812 48.0312 41.9687C47.8113 42.8056 47.42 43.5877 46.8821 44.2655C46.3441 44.9433 45.6713 45.502 44.9062 45.9062C43.8806 46.4281 42.7445 46.696 41.5938 46.6875C40.302 46.6609 39.0239 46.4179 37.8125 45.9687C37.2241 45.7657 36.7404 45.3372 36.4679 44.7775C36.1953 44.2178 36.1563 43.5728 36.3594 42.9844C36.5624 42.3959 36.9909 41.9122 37.5506 41.6397C38.1103 41.3672 38.7553 41.3282 39.3438 41.5312C40.4023 42.0216 41.6057 42.0996 42.7188 41.75C42.9193 41.6698 43.0916 41.5321 43.2139 41.3541C43.3363 41.1761 43.4032 40.9659 43.4063 40.75C43.4063 40.0625 42.3125 39.6562 41.7812 39.3437C36.9687 36.2187 37.4062 33.2812 38.6562 31.2187C40.9687 27.375 46.4063 28.6562 47.0313 28.8437C47.6096 28.9986 48.1054 29.3716 48.4143 29.8845C48.7232 30.3974 48.8211 31.0101 48.6875 31.5937V31.6875ZM62.6875 46.0937C62.0673 46.1372 61.4548 45.9356 60.9816 45.5325C60.5083 45.1293 60.212 44.5567 60.1562 43.9375V43.25C60.1482 43.0566 60.0656 42.8737 59.9258 42.7398C59.786 42.6058 59.5999 42.5311 59.4063 42.5312H56.9687C56.8189 42.5239 56.6704 42.5617 56.5422 42.6397C56.4141 42.7177 56.3123 42.8323 56.25 42.9687L55.3125 44.9687C55.1791 45.2478 54.9921 45.4979 54.7621 45.7046C54.5321 45.9114 54.2636 46.0709 53.9719 46.1739C53.6803 46.2769 53.3712 46.3215 53.0624 46.305C52.7535 46.2886 52.4509 46.2115 52.1719 46.0781C51.6083 45.8088 51.1748 45.3266 50.9667 44.7376C50.8637 44.4459 50.8192 44.1369 50.8356 43.828C50.852 43.5192 50.9291 43.2166 51.0625 42.9375L57.125 30.2812C57.3258 29.8535 57.6438 29.4914 58.042 29.237C58.4403 28.9825 58.9024 28.8462 59.375 28.8437H61.6875C62.265 28.8641 62.8152 29.0943 63.2351 29.4913C63.6551 29.8882 63.9159 30.4246 63.9687 31C64.2187 34.125 64.2187 34.125 65 43.5C65.0168 43.817 64.9699 44.1343 64.862 44.4329C64.7541 44.7315 64.5874 45.0054 64.3718 45.2385C64.1562 45.4715 63.8961 45.659 63.6068 45.7898C63.3175 45.9206 63.0049 45.9921 62.6875 46V46.0937Z" fill="#527ADF"/>
<path d="M58.6562 37.75L59.5 35.9375L59.6562 37.75H58.6562Z" fill="#527ADF"/>
</svg>
