<svg width="81" height="81" viewBox="0 0 81 81" fill="none" xmlns="http://www.w3.org/2000/svg">
<path d="M10.8907 6.38507H71.5964V28.9891H10.8907V6.38507Z" fill="white"/>
<path d="M10.8907 29.6219H71.5964V81H10.8907V29.6219Z" fill="#006CA2"/>
<path d="M18.7249 19.5096C18.1427 19.5096 17.6428 19.5413 17.6428 20.3702C17.6428 20.7752 17.6238 21.1739 17.6492 21.5789C17.6555 21.8004 17.6871 22.0472 17.7947 22.237C17.9086 22.4332 18.0415 22.4332 18.225 22.4585C18.4655 22.4965 18.668 22.5028 18.9148 22.5028C19.478 22.5028 20.0538 22.1421 20.2563 21.5726C20.3576 21.2688 20.3639 20.9145 20.212 20.5158C19.9463 19.8703 19.2945 19.5096 18.7249 19.5096ZM33.9061 18.4971L33.8871 18.4148C33.7732 17.9466 33.6656 17.4783 33.5581 17.01C33.4758 16.8518 33.4188 16.624 33.21 16.6809C33.0645 16.7189 33.0075 16.9024 32.9695 17.0037L32.9252 17.0543C32.824 17.6998 32.7101 18.3452 32.5899 18.9907L32.5772 19.0603L32.5392 19.2185C32.5202 19.4084 32.4949 19.6172 32.5582 19.8007L32.7101 19.9905L32.9569 20.0728L33.1277 20.1361H33.7163C34.4313 19.9273 33.9947 19.054 33.9251 18.5541L33.9061 18.4971ZM18.2377 15.814C18.8009 15.9279 19.5349 15.7317 19.864 15.0863C20.1045 14.6116 20.0602 14.0484 19.7754 13.6245L19.6742 13.4852C19.4463 13.2258 19.1173 13.1562 18.8199 13.1435C18.5224 13.1245 18.1807 13.1435 17.9023 13.2891L17.7631 13.4473C17.6871 13.5928 17.6238 13.789 17.5922 13.9978C17.5099 14.4977 17.5732 15.0989 17.7694 15.4659C17.877 15.6621 18.0415 15.776 18.2377 15.814Z" fill="#78A3AD"/>
<path d="M69.7106 1.75922H11.2894C8.0747 1.75922 5.4422 4.39172 5.4422 7.6064V81H30.7041V68.5842C30.7041 66.7934 32.1659 65.3252 33.9567 65.3252H47.0243C48.8152 65.3252 50.2833 66.7934 50.2833 68.5842V81H75.5452V7.6064C75.5578 4.39172 72.9253 1.75922 69.7106 1.75922ZM22.3952 57.9909H14.1624V48.0558H22.3952V57.9909ZM22.3952 42.7908H14.1624V32.8556H22.3952V42.7908ZM24.762 22.5661C24.2367 23.8064 23.3065 24.8759 22.1168 25.3884C20.712 25.9959 19.1932 26.0655 17.6998 26.0276C16.8518 26.0086 15.7001 26.0719 14.9724 25.553C13.5738 24.5468 13.827 23.142 13.808 21.5979C13.789 20.2184 13.789 18.8388 13.7447 17.4656C13.7067 16.1937 13.7257 14.9534 13.751 13.7067C13.77 12.7891 13.5232 11.5741 14.156 10.8148C15.2128 9.53648 17.2252 9.50484 18.7123 9.61875C21.1359 9.80859 24.1165 11.0046 23.7938 14.2256C23.7368 14.7002 23.5913 15.2002 23.3508 15.5925C23.0977 16.0102 22.5724 16.5101 22.8192 17.0859C23.104 17.7377 23.9646 18.0921 24.357 18.7249C24.8316 19.497 25.0531 20.25 25.0657 20.9587C25.0784 21.5156 24.9708 22.0662 24.762 22.5661ZM37.1398 57.9909H28.9069V48.0558H37.1398V57.9909ZM37.1398 42.7908H28.9069V32.8556H37.1398V42.7908ZM37.7916 25.9643C37.0892 26.1415 35.697 25.9959 35.3742 25.2366C34.9249 24.1734 35.1338 22.9395 33.6213 22.7433C32.9126 22.6484 31.8874 22.9584 31.59 23.6609C31.2863 24.3949 31.5267 25.2998 30.742 25.7998C30.2105 26.1415 29.4638 26.1921 28.8499 26.0909C27.4704 25.8694 27.1413 24.8505 27.3438 23.5849C27.4451 22.9711 27.578 22.3573 27.7362 21.7498C28.0399 20.5158 28.4196 19.2945 28.6981 18.0605C28.9892 16.7695 29.2043 15.4659 29.5587 14.1813C30.1788 11.8969 31.3116 8.88469 34.3238 9.89719C35.6147 10.3275 35.9754 11.7577 36.3931 12.8967C37.0006 14.542 37.241 16.3519 37.6207 18.0605C37.8992 19.2945 38.2725 20.5158 38.5826 21.7498C38.7598 22.4838 39.1078 23.5849 39.0066 24.4898C38.9306 25.1859 38.6079 25.7491 37.7916 25.9643ZM51.8843 57.9909H43.6514V48.0558H51.8843V57.9909ZM51.8843 42.7908H43.6514V32.8556H51.8843V42.7908ZM53.9852 21.3764C53.9726 21.8637 53.9473 22.4395 53.865 23.0154C53.7448 23.9077 53.4031 25.4201 52.2956 25.5277C51.9349 25.5656 51.5426 25.534 51.2262 25.4391C49.4606 24.9202 49.1569 23.0154 48.1064 21.7118C47.8343 21.3764 47.6445 21.022 47.4356 20.6613C47.1952 20.25 46.7142 19.44 46.17 19.3704C45.4992 19.2818 45.6511 20.2184 45.6574 20.6803C45.6764 22.0725 46.1384 25.0404 44.531 25.7428C42.1453 26.787 41.5505 23.547 41.5125 22.0662C41.4619 20.2184 41.2531 18.3705 41.2531 16.5227C41.2531 15.0799 41.0949 12.0171 42.3605 10.973C44.4108 9.28336 45.6385 11.0552 46.942 12.5677C47.5369 13.2637 47.9229 13.9788 48.4228 14.7445C48.7202 15.2002 49.5049 15.6937 49.7454 14.9597C50.1504 13.7573 49.7264 12.2512 50.3592 11.1375C51.1376 9.77695 53.3588 10.1377 53.9409 11.4982C54.0485 11.745 54.0802 12.1627 54.1118 12.4474C54.4535 15.39 54.0359 18.4085 53.9852 21.3764ZM66.6352 57.9909H58.3959V48.0558H66.6352V57.9909ZM66.6352 42.7908H58.3959V32.8556H66.6352V42.7908ZM67.9577 24.6607C67.597 25.4454 66.5656 26.2237 65.686 25.8947C64.6861 25.5213 64.1862 24.5025 63.8065 23.5723C63.4458 22.6737 63.0155 21.7118 62.1928 21.1233C61.7752 20.8195 61.4271 20.9841 61.1424 21.3005C60.0096 22.5345 61.8448 25.0657 59.959 25.8947C59.516 26.0845 58.8769 26.0655 58.4023 26.0149C56.1052 25.7745 56.5861 23.4584 56.5735 21.7624C56.5608 20.3069 56.5608 18.8641 56.5102 17.4403C56.4659 16.1367 56.4912 14.8837 56.5228 13.6371C56.5292 13.1055 56.5671 12.6626 56.6304 12.1373C56.7063 11.4729 56.6494 10.7072 57.3012 10.2705C57.9087 9.86554 58.763 9.9668 59.4274 10.144C60.3007 10.3781 60.3007 10.7135 60.5918 11.5425C60.807 12.169 60.8323 12.8967 60.8449 13.5612C60.8576 13.9535 60.9272 14.4977 61.4145 14.5041C61.9144 14.5041 62.3384 13.6561 62.6231 13.327C62.8952 13.0043 63.2053 12.7132 63.3699 12.3272C63.9457 11.0236 65.8062 9.77695 67.1288 11.0046C68.2742 12.0614 67.3945 13.5359 66.6225 14.5167C65.9201 15.4153 64.6861 16.4088 65.1354 17.6871C65.6796 19.2565 66.8377 20.617 67.5021 22.1421C67.7109 22.6104 68.0147 23.2559 68.078 23.857C68.0906 24.1355 68.0717 24.4139 67.9577 24.6607Z" fill="#78A3AD"/>
</svg>
