<svg width="99" height="99" viewBox="0 0 99 99" fill="none" xmlns="http://www.w3.org/2000/svg">
<path d="M74.25 92.8125H24.75C20.2125 92.8125 16.5 89.1 16.5 84.5625V14.4375C16.5 9.9 20.2125 6.1875 24.75 6.1875H58.3687C60.6375 6.1875 62.7 7.0125 64.1438 8.6625L80.025 24.5437C81.675 26.1937 82.5 28.2562 82.5 30.3187V84.5625C82.5 89.1 78.7875 92.8125 74.25 92.8125Z" fill="#009688"/>
<path d="M66 78.375H33C30.7312 78.375 28.875 76.5188 28.875 74.25V49.5C28.875 47.2312 30.7312 45.375 33 45.375H66C68.2688 45.375 70.125 47.2312 70.125 49.5V74.25C70.125 76.5188 68.2688 78.375 66 78.375Z" fill="#FF9800"/>
<path d="M59.8125 61.875V68.0625H70.125V72.1875H59.8125V78.375H55.6875V45.375H59.8125V57.75H70.125V61.875H59.8125ZM28.875 59.8125V63.9375H39.1875V68.0625H28.875V72.1875H39.1875V78.375H43.3125V59.8125H28.875Z" fill="#FFD54F"/>
</svg>
