<svg width="101" height="101" viewBox="0 0 101 101" fill="none" xmlns="http://www.w3.org/2000/svg">
<path d="M32.3873 96.7917C39.8609 96.7917 47.0283 93.8228 52.3129 88.5382C57.5975 83.2536 60.5663 76.0862 60.5663 68.6127C60.5663 61.1391 57.5975 53.9717 52.3129 48.6871C47.0283 43.4025 39.8609 40.4337 32.3873 40.4337C24.9138 40.4337 17.7464 43.4025 12.4618 48.6871C7.17718 53.9717 4.20833 61.1391 4.20833 68.6127C4.20833 76.0862 7.17718 83.2536 12.4618 88.5382C17.7464 93.8228 24.9138 96.7917 32.3873 96.7917Z" fill="#009688" fill-opacity="0.26"/>
<path d="M32.3873 40.4379C26.839 40.4376 21.4141 42.0755 16.793 45.1461C12.1718 48.2168 8.56018 52.5835 6.41093 57.6986C4.26169 62.8138 3.67054 68.4496 4.71162 73.8994C5.75271 79.3491 8.37968 84.3702 12.2631 88.3329L52.116 48.48C46.8505 43.3113 39.7615 40.4237 32.3831 40.4421" fill="#FF9800"/>
<path d="M76.6674 44.461C81.326 44.466 85.8419 42.8542 89.4445 39.9008C93.0472 36.9473 95.5133 32.8353 96.4222 28.2662C97.331 23.6972 96.6262 18.9544 94.428 14.8471C92.2298 10.7398 88.6745 7.52255 84.3687 5.74436C81.6195 4.60564 78.6521 4.09075 75.68 4.23677C72.708 4.38279 69.8053 5.18608 67.181 6.58879C64.5567 7.9915 62.2762 9.95873 60.5036 12.3488C58.731 14.7388 57.5105 17.4923 56.93 20.4107C56.3494 23.3292 56.4234 26.3401 57.1464 29.2265C57.8694 32.113 59.2235 34.8032 61.1112 37.1034C62.999 39.4036 65.3733 41.2566 68.0632 42.5288C70.7532 43.8011 73.6918 44.461 76.6674 44.461Z" fill="#009688" fill-opacity="0.26"/>
<path d="M76.6674 4.20833C72.7102 4.2032 68.8396 5.36632 65.5407 7.55189C62.2418 9.73746 59.6614 12.8482 58.1231 16.4942C56.5848 20.1402 56.157 24.1591 56.8934 28.0472C57.6297 31.9353 59.4974 35.5195 62.2623 38.3505L90.6854 9.92745C86.9408 6.26072 81.9083 4.20754 76.6674 4.20833Z" fill="#FF9800"/>
<path d="M28.3642 48.564V56.5388M36.4105 48.564V56.5388M28.3642 80.7704V88.741M36.4105 80.7704V88.741M76.6674 44.4609C81.326 44.4658 85.8419 42.8541 89.4445 39.9006C93.0472 36.9472 95.5134 32.8351 96.4222 28.2661C97.331 23.6971 96.6262 18.9543 94.428 14.847C92.2298 10.7397 88.6745 7.52242 84.3687 5.74424C81.6195 4.60552 78.6521 4.09063 75.68 4.23665C72.708 4.38266 69.8053 5.18596 67.181 6.58867C64.5567 7.99138 62.2762 9.9586 60.5036 12.3487C58.731 14.7387 57.5105 17.4921 56.93 20.4106C56.3494 23.3291 56.4234 26.3399 57.1464 29.2264C57.8694 32.1129 59.2235 34.8031 61.1112 37.1033C62.999 39.4035 65.3733 41.2565 68.0632 42.5287C70.7532 43.801 73.6918 44.4609 76.6674 44.4609ZM32.3873 96.7915C39.8609 96.7915 47.0283 93.8227 52.3129 88.5381C57.5975 83.2535 60.5663 76.0861 60.5663 68.6125C60.5663 61.139 57.5975 53.9716 52.3129 48.687C47.0283 43.4024 39.8609 40.4335 32.3873 40.4335C24.9138 40.4335 17.7464 43.4024 12.4618 48.687C7.17718 53.9716 4.20833 61.139 4.20833 68.6125C4.20833 76.0861 7.17718 83.2535 12.4618 88.5381C17.7464 93.8227 24.9138 96.7915 32.3873 96.7915Z" stroke="#191919" stroke-linecap="round" stroke-linejoin="round"/>
<path d="M38.4221 68.6127C40.023 68.6127 41.5584 67.977 42.6908 66.8454C43.8232 65.7138 44.4599 64.1788 44.461 62.5779C44.4616 61.7845 44.3058 60.9988 44.0026 60.2656C43.6993 59.5324 43.2546 58.8662 42.6938 58.305C42.1329 57.7438 41.467 57.2986 40.7341 56.9948C40.0011 56.6911 39.2155 56.5347 38.4221 56.5347H24.3368V68.6127M38.4221 68.6127H24.3368M38.4221 68.6127C39.2151 68.6127 40.0004 68.7689 40.7331 69.0724C41.4658 69.3758 42.1315 69.8207 42.6923 70.3814C43.253 70.9422 43.6979 71.6079 44.0013 72.3406C44.3048 73.0733 44.461 73.8586 44.461 74.6516C44.461 75.4447 44.3048 76.23 44.0013 76.9626C43.6979 77.6953 43.253 78.361 42.6923 78.9218C42.1315 79.4826 41.4658 79.9274 40.7331 80.2309C40.0004 80.5344 39.2151 80.6906 38.4221 80.6906H24.3368V68.6127M72.0046 28.9996C72.0029 29.9242 72.2757 30.8285 72.7883 31.598C73.301 32.3675 74.0304 32.9675 74.8843 33.3221C75.7382 33.6767 76.6782 33.7699 77.5851 33.5899C78.492 33.41 79.3251 32.9649 79.9789 32.3111C80.6327 31.6573 81.0778 30.8242 81.2577 29.9173C81.4377 29.0104 81.3445 28.0704 80.9899 27.2165C80.6353 26.3626 80.0352 25.6332 79.2658 25.1205C78.4963 24.6079 77.592 24.3351 76.6674 24.3368C75.743 24.3385 74.8389 24.0658 74.0695 23.5533C73.3001 23.0409 72.7001 22.3117 72.3453 21.458C71.9906 20.6044 71.8972 19.6646 72.0768 18.7578C72.2564 17.851 72.7011 17.0179 73.3544 16.364C74.0078 15.71 74.8405 15.2646 75.7472 15.0842C76.6538 14.9037 77.5936 14.9963 78.4476 15.3503C79.3015 15.7042 80.0313 16.3036 80.5445 17.0725C81.0576 17.8414 81.3311 18.7453 81.3302 19.6697M76.6674 33.6667V36.7808M76.6674 11.8927V15.0069M38.4221 6.22412C35.7797 6.22357 33.1631 6.74361 30.7218 7.75454C28.2805 8.76547 26.0623 10.2475 24.1938 12.1159C22.3254 13.9843 20.8434 16.2026 19.8325 18.6439C18.8215 21.0852 18.3015 23.7018 18.302 26.3442V30.3715M66.6011 86.7295C69.2449 86.7312 71.863 86.2117 74.3059 85.2007C76.7487 84.1898 78.9683 82.7072 80.8377 80.8378C82.7072 78.9683 84.1898 76.7487 85.2007 74.3059C86.2117 71.863 86.7312 69.2449 86.7295 66.6011V62.5779" stroke="#191919" stroke-linecap="round" stroke-linejoin="round"/>
<path d="M10.2515 22.3252L18.302 30.3757L26.3526 22.3252M78.6748 70.6284L86.7253 62.5779L94.7759 70.6284" stroke="#191919" stroke-linecap="round" stroke-linejoin="round"/>
</svg>
