<svg width="66" height="66" viewBox="0 0 66 66" fill="none" xmlns="http://www.w3.org/2000/svg">
<path fill-rule="evenodd" clip-rule="evenodd" d="M45.4437 5.5H45.6308C48.0618 5.5 50.0225 5.5 51.5983 5.65125C53.2263 5.80525 54.6452 6.1325 55.9185 6.9135C57.211 7.7055 58.2945 8.789 59.0865 10.0815C59.8675 11.3547 60.1947 12.7738 60.3515 14.399C60.5 15.9775 60.5 17.941 60.5 20.3693V20.5618C60.5 22.1568 60.5 23.4878 60.3982 24.5713C60.2882 25.7043 60.0572 26.7575 59.4632 27.7255C58.8857 28.6715 58.0882 29.4662 57.1422 30.0465C56.1742 30.6405 55.1182 30.8715 53.988 30.9815C52.9045 31.0832 51.5708 31.0833 49.973 31.0833H46.937C44.638 31.0833 42.7213 31.0833 41.2005 30.8798C39.5945 30.6625 38.1452 30.1895 36.9792 29.0235C35.8132 27.8575 35.3403 26.411 35.123 24.8023C34.9195 23.2815 34.9195 21.3648 34.9195 19.0658V16.0243C34.9195 14.4293 34.9195 13.0955 35.0212 12.012C35.1312 10.8818 35.3622 9.82575 35.9562 8.8605C36.5337 7.91175 37.3312 7.117 38.2772 6.53675C39.2452 5.94275 40.2985 5.71175 41.4315 5.60175C42.5122 5.5 43.846 5.5 45.4437 5.5ZM47.7098 21.4885C46.3898 21.4885 45.7297 21.4885 45.265 21.1585C45.1026 21.0403 44.9597 20.8974 44.8415 20.735C44.5115 20.2675 44.5115 19.6075 44.5115 18.2903C44.5115 16.973 44.5115 16.313 44.8415 15.8483C44.9595 15.6849 45.1024 15.541 45.265 15.422C45.7325 15.092 46.3925 15.092 47.7098 15.092C49.027 15.092 49.687 15.092 50.1517 15.422C50.3167 15.5412 50.4588 15.6833 50.578 15.8483C50.908 16.313 50.908 16.973 50.908 18.2903C50.908 19.6075 50.908 20.2702 50.578 20.735C50.459 20.8976 50.3151 21.0405 50.1517 21.1585C49.687 21.4885 49.027 21.4885 47.7098 21.4885ZM27.72 6.53675C26.7575 5.94275 25.7015 5.71175 24.5685 5.60175C23.485 5.5 22.154 5.5 20.5562 5.5H20.3693C17.9383 5.5 15.9775 5.5 14.4017 5.65125C12.7737 5.80525 11.3547 6.1325 10.0815 6.9135C8.789 7.7055 7.7055 8.789 6.9135 10.0815C6.1325 11.3547 5.80525 12.7738 5.6485 14.399C5.5 15.9775 5.5 17.941 5.5 20.3693V20.5618C5.5 22.1568 5.5 23.4878 5.60175 24.5713C5.71175 25.7043 5.94275 26.7575 6.53675 27.7255C7.11425 28.6715 7.91175 29.4662 8.8605 30.0465C9.82575 30.6405 10.8818 30.8715 12.012 30.9815C13.0955 31.0832 14.4265 31.0833 16.027 31.0833H19.063C21.362 31.0833 23.2787 31.0833 24.7995 30.8798C26.4055 30.6625 27.8548 30.1895 29.0208 29.0235C30.1868 27.8575 30.6597 26.411 30.877 24.8023C31.0805 23.2815 31.0805 21.3648 31.0805 19.0658V16.0243C31.0805 14.4293 31.0805 13.0955 30.9788 12.012C30.8688 10.8818 30.6378 9.82575 30.0438 8.8605C29.4641 7.91376 28.6688 7.11751 27.7228 6.53675M15.851 21.1585C16.3157 21.4885 16.9757 21.4885 18.293 21.4885C19.6102 21.4885 20.273 21.4885 20.7377 21.1585C20.9001 21.0403 21.043 20.8974 21.1613 20.735C21.4913 20.2675 21.4913 19.6075 21.4913 18.2903C21.4913 16.973 21.4913 16.313 21.1613 15.8483C21.0433 15.6849 20.9004 15.541 20.7377 15.422C20.2702 15.092 19.6102 15.092 18.293 15.092C16.9757 15.092 16.3157 15.092 15.851 15.422C15.6874 15.5408 15.5436 15.6847 15.4248 15.8483C15.0948 16.313 15.0947 16.973 15.0947 18.2903C15.0947 19.6075 15.0948 20.2702 15.4248 20.735C15.5438 20.8976 15.6876 21.0405 15.851 21.1585ZM24.7995 35.123C26.4055 35.3403 27.8548 35.8132 29.0208 36.9792C30.1868 38.1452 30.6597 39.5918 30.877 41.2005C31.0805 42.7213 31.0805 44.638 31.0805 46.937V49.9758C31.0805 51.5708 31.0805 52.9045 30.9788 53.988C30.8688 55.1182 30.6378 56.1742 30.0438 57.1395C29.4663 58.0882 28.6688 58.883 27.7228 59.4632C26.7548 60.0572 25.7015 60.2882 24.5685 60.3982C23.485 60.5 22.154 60.5 20.5562 60.5H20.3693C17.9383 60.5 15.9775 60.5 14.4017 60.3487C12.7737 60.1947 11.3547 59.8675 10.0815 59.0865C8.79101 58.2944 7.7056 57.209 6.9135 55.9185C6.1325 54.6452 5.80525 53.2262 5.6485 51.601C5.5 50.0225 5.5 48.0617 5.5 45.6335V45.441C5.5 43.846 5.5 42.5122 5.60175 41.4315C5.71175 40.2985 5.94275 39.2452 6.53675 38.2772C7.11425 37.3312 7.91175 36.5365 8.8605 35.9562C9.82575 35.3622 10.8818 35.1312 12.012 35.0212C13.0955 34.9195 14.4265 34.9195 16.027 34.9195H19.063C21.362 34.9195 23.2787 34.9195 24.7995 35.123ZM18.2903 50.908C16.9703 50.908 16.313 50.908 15.8483 50.578C15.6847 50.4592 15.5408 50.3153 15.422 50.1517C15.092 49.687 15.092 49.027 15.092 47.7098C15.092 46.3925 15.092 45.7297 15.422 45.265C15.541 45.1024 15.6849 44.9595 15.8483 44.8415C16.313 44.5115 16.973 44.5115 18.2903 44.5115C19.6075 44.5115 20.2702 44.5115 20.735 44.8415C20.9 44.9607 21.0412 45.1018 21.1585 45.265C21.4885 45.7325 21.4885 46.3925 21.4885 47.7098C21.4885 49.027 21.4885 49.687 21.1585 50.1517C21.0405 50.3151 20.8976 50.459 20.735 50.578C20.2675 50.908 19.6075 50.908 18.2903 50.908Z" fill="#78A3AD"/>
<path d="M34.9195 45.694V45.7902H38.7558C38.7558 43.9532 38.7557 42.7212 38.8547 41.7807C38.9455 40.8732 39.1105 40.4552 39.2947 40.1775C39.5293 39.83 39.828 39.5304 40.1748 39.2947C40.4553 39.1105 40.8732 38.9455 41.7807 38.8547C42.7212 38.7585 43.9532 38.7557 45.7902 38.7557H50.9052V34.9195H45.694C43.9807 34.9195 42.5508 34.9195 41.393 35.035C40.183 35.1587 39.0583 35.4282 38.0463 36.1047C37.2763 36.6162 36.6162 37.2762 36.1047 38.0462C35.4282 39.0582 35.1587 40.183 35.035 41.393C34.9195 42.548 34.9195 43.978 34.9195 45.694ZM60.5 50.9712V50.908H56.6637C56.6637 52.1262 56.6638 52.943 56.6198 53.5755C56.5758 54.1915 56.5015 54.4912 56.419 54.6892C56.2587 55.078 56.023 55.4311 55.7257 55.7285C55.4284 56.0258 55.0752 56.2614 54.6865 56.4217C54.494 56.5015 54.1915 56.5757 53.5755 56.6197C52.943 56.661 52.1262 56.6637 50.908 56.6637H45.793V60.5H50.9713C52.1098 60.5 53.0585 60.5 53.8367 60.445C54.6318 60.4148 55.4162 60.2522 56.1577 59.9637C57.8805 59.2493 59.2493 57.8805 59.9638 56.1577C60.2718 55.4152 60.3928 54.648 60.4478 53.8367C60.5 53.0585 60.5 52.1097 60.5 50.9712ZM38.7558 58.5805C38.7655 58.8385 38.7231 59.0958 38.6311 59.3371C38.5392 59.5783 38.3994 59.7985 38.2204 59.9845C38.0413 60.1705 37.8265 60.3184 37.5889 60.4195C37.3513 60.5205 37.0958 60.5726 36.8376 60.5726C36.5794 60.5726 36.3239 60.5205 36.0863 60.4195C35.8487 60.3184 35.634 60.1705 35.4549 59.9845C35.2758 59.7985 35.1361 59.5783 35.0441 59.3371C34.9521 59.0958 34.9097 58.8385 34.9195 58.5805V50.908H38.7558V58.5805ZM58.5805 34.9195C58.0728 34.9217 57.5865 35.1243 57.2276 35.4833C56.8686 35.8423 56.6659 36.3286 56.6637 36.8362V45.7902H60.5V36.8362C60.4978 36.3281 60.2948 35.8414 59.9352 35.4823C59.5756 35.1233 59.0887 34.9209 58.5805 34.9195ZM44.209 45.6967C44 46.2027 44 46.8435 44 48.125C44 49.4065 44 50.0472 44.209 50.5532C44.4887 51.2257 45.0238 51.7598 45.6968 52.0382C46.2028 52.25 46.8435 52.25 48.125 52.25C49.4065 52.25 50.0472 52.25 50.5532 52.041C51.2257 51.7613 51.7598 51.2262 52.0383 50.5532C52.25 50.0472 52.25 49.4065 52.25 48.125C52.25 46.8435 52.25 46.2027 52.041 45.6967C51.7613 45.0243 51.2262 44.4902 50.5532 44.2117C50.0472 44 49.4065 44 48.125 44C46.8435 44 46.2028 44 45.6968 44.209C45.0243 44.4887 44.4875 45.0237 44.209 45.6967Z" fill="#78A3AD"/>
</svg>
