<svg width="232" height="256" viewBox="0 0 232 256" fill="none" xmlns="http://www.w3.org/2000/svg">
<path d="M108.345 122.044L0.960907 234.345C2.16682 238.611 4.33389 242.545 7.29645 245.847C10.259 249.148 13.9386 251.73 18.054 253.395C22.1694 255.059 26.6117 255.763 31.0411 255.451C35.4706 255.139 39.7701 253.821 43.6108 251.597L164.438 182.907L108.345 122.044Z" fill="#EA4335"/>
<path d="M216.929 102.956L164.68 73.0822L105.866 124.599L164.919 182.746L216.771 153.193C221.364 150.792 225.212 147.182 227.896 142.754C230.581 138.326 232 133.249 232 128.074C232 122.898 230.581 117.821 227.896 113.393C225.212 108.965 221.364 105.355 216.771 102.955L216.929 102.956Z" fill="#FBBC04"/>
<path d="M0.960905 21.2463C0.312205 23.6416 -0.0108973 26.113 0.000280362 28.5943V226.996C0.00668581 229.477 0.32949 231.946 0.960905 234.345L112.026 124.92L0.960905 21.2463Z" fill="#4285F4"/>
<path d="M109.145 127.796L164.679 73.0831L44.0114 4.07344C39.4713 1.41955 34.3078 0.0140444 29.0465 5.5479e-05C15.9902 -0.0252731 4.51159 8.62445 0.960907 21.1666L109.145 127.796Z" fill="#34A853"/>
</svg>
